<?xml version="1.0" encoding="UTF-8"?>
<svg version="1.1" xmlns="http://www.w3.org/2000/svg" width="256" height="256">
<path d="M0 0 C13.40003208 -0.08632018 26.74243862 0.11668466 40.12841797 0.71850586 C41.9297982 0.79608305 43.73119551 0.87326462 45.53260803 0.9500885 C50.352651 1.15678589 55.17243388 1.36903723 59.9921813 1.58250117 C65.07384645 1.80667426 70.15572628 2.02587871 75.23757935 2.2457428 C83.75878219 2.61511743 92.27982998 2.98790575 100.80078125 3.36303711 C110.61473902 3.7950737 120.42887859 4.2227561 130.24313819 4.64787763 C140.75674244 5.10330265 151.27022864 5.5614051 161.7836709 6.02055287 C164.78732487 6.15158631 167.79099755 6.28218372 170.79467392 6.41270256 C175.5309505 6.6186768 180.26714283 6.82649754 185.00327873 7.03568077 C186.7288566 7.111641 188.4544594 7.1870374 190.18008995 7.26179123 C194.74273551 7.45965753 199.30411054 7.67355924 203.86526632 7.9031074 C206.04290205 8.00194726 208.22009578 8.0697933 210.39899063 8.13443184 C211.77335092 8.19005922 213.14768974 8.24622042 214.52200317 8.30299377 C216.32708186 8.36112669 216.32708186 8.36112669 218.16862679 8.420434 C221 9 221 9 222.3423748 10.79356289 C222.95741125 12.85710797 223.53409466 14.8977444 224 17 C224.53383228 18.92020689 225.0681776 20.84027527 225.60698414 22.75909233 C230.11618548 38.82430061 234.22205592 54.9935345 238.34936523 71.16015625 C239.32615145 74.98279356 240.31092368 78.80324079 241.30249023 82.62207031 C242.51406467 87.28858975 243.71137474 91.95855726 244.89887047 96.63125992 C245.34884839 98.39216806 245.80367721 100.15184482 246.26371193 101.91015244 C252.43999355 125.55572603 252.43999355 125.55572603 248.25 133.1875 C246 135 246 135 242 136 C242.99 139.96 243.98 143.92 245 148 C238.51326621 151.63600236 235.47597423 152.27152301 228.40820312 150.31567383 C208.08607749 145.16332689 189.58689041 156.07043584 171.35598755 163.99298096 C161.56077585 168.24236657 151.6281055 172.06608545 141.62915039 175.80575562 C137.40334549 177.38631205 133.18379842 178.98329585 128.96484375 180.58203125 C128.20271576 180.87036331 127.44058777 181.15869537 126.65536499 181.45576477 C119.39829122 184.21002883 112.19737996 187.09345138 105 190 C105.99 198.91 105.99 198.91 107 208 C103.89851579 209.33988903 100.79411954 210.67211641 97.6875 212 C96.80642578 212.3815625 95.92535156 212.763125 95.01757812 213.15625 C94.17001953 213.5171875 93.32246094 213.878125 92.44921875 214.25 C91.66893311 214.58515625 90.88864746 214.9203125 90.0847168 215.265625 C88 216 88 216 85 216 C83.65155132 210.3443706 82.63065155 204.7809725 82 199 C81.11699219 199.3609375 80.23398438 199.721875 79.32421875 200.09375 C70.35158299 203.56329766 61.85959798 206.43284939 52.5625 202.375 C48.17985118 200.16001118 45.7714598 196.23096672 44.20674133 191.70599365 C43.41827203 188.85133509 42.70999185 185.98637193 42.0234375 183.10546875 C41.60490509 181.41448814 41.60490509 181.41448814 41.17791748 179.68934631 C40.39779748 176.5281199 39.62831758 173.3645153 38.86307526 170.19966125 C38.03417558 166.78240173 37.19210781 163.36839116 36.35107422 159.95410156 C35.22011484 155.35915997 34.09085317 150.76381785 32.96694946 146.16714478 C29.72104409 132.89560466 26.4273116 119.63623368 23.12237167 106.379282 C21.34336832 99.24145357 19.56750877 92.1028423 17.79146004 84.96427822 C16.31284087 79.02150809 14.83321597 73.07899276 13.35125732 67.13705444 C11.93546367 61.4589595 10.52446019 55.77969311 9.1167984 50.09957695 C8.5926207 47.98772407 8.06684074 45.87626812 7.53932953 43.76524544 C2.6291912 24.10885256 2.6291912 24.10885256 1.34811401 15.14837646 C1.03040533 12.82385797 1.03040533 12.82385797 0 10 C-0.06802967 8.27204648 -0.08495645 6.54164635 -0.0625 4.8125 C-0.05347656 3.91144531 -0.04445312 3.01039062 -0.03515625 2.08203125 C-0.02355469 1.39496094 -0.01195312 0.70789063 0 0 Z " fill="#DADADB" transform="translate(3,20)"/>
<path d="M0 0 C3.20409273 -0.55570434 4.93373137 -0.84452029 8 0 C10.97348885 2.8899595 12.95146453 6.32712159 15.0625 9.875 C16.21888248 11.72729319 17.37643266 13.57885791 18.53515625 15.4296875 C19.09734863 16.34975586 19.65954102 17.26982422 20.23876953 18.21777344 C22.57044974 21.90114295 25.11931229 25.40802409 27.71264648 28.91064453 C29 31 29 31 29 34 C27.02 34.33 25.04 34.66 23 35 C21.35 32.69 19.7 30.38 18 28 C13.38 28.99 8.76 29.98 4 31 C3.67 33.97 3.34 36.94 3 40 C1.27192682 40.33895656 -0.45751974 40.67091525 -2.1875 41 C-3.15042969 41.185625 -4.11335938 41.37125 -5.10546875 41.5625 C-6.06066406 41.706875 -7.01585937 41.85125 -8 42 C-8.82886719 42.13148438 -9.65773437 42.26296875 -10.51171875 42.3984375 C-14.27029904 41.79659262 -16.16976034 39.32306556 -18.625 36.625 C-23.90260568 30.7409947 -23.90260568 30.7409947 -31.1875 28.375 C-32.445625 28.25125 -33.70375 28.1275 -35 28 C-34.690625 29.093125 -34.38125 30.18625 -34.0625 31.3125 C-32.7536901 36.48276323 -32.37073653 41.69261392 -32 47 C-34.64 47.33 -37.28 47.66 -40 48 C-42.14048879 39.73107132 -44.01636356 31.4383772 -45.6875 23.0625 C-45.91244141 21.96615234 -46.13738281 20.86980469 -46.36914062 19.74023438 C-46.58119141 18.68255859 -46.79324219 17.62488281 -47.01171875 16.53515625 C-47.29728638 15.11795288 -47.29728638 15.11795288 -47.58862305 13.67211914 C-47.98974441 11.06661566 -48.07545037 8.63121986 -48 6 C-42.32184483 4.45141223 -36.86976506 3.42534529 -31 3 C-30.08605469 2.91105469 -29.17210938 2.82210937 -28.23046875 2.73046875 C-23.11710594 2.4296827 -19.89276303 2.49118728 -15.875 5.875 C-12.8385413 8.88240168 -12.04830507 10.41067814 -11.6875 14.8125 C-11.72326533 18.09098835 -12.00408397 19.00661884 -13.8125 21.9375 C-16 24 -16 24 -19 25 C-17.43910974 26.41844009 -15.8762111 27.83467025 -14.3125 29.25 C-13.00732422 30.43335938 -13.00732422 30.43335938 -11.67578125 31.640625 C-9.17579137 33.84499564 -6.62054272 35.94133941 -4 38 C-4.01804688 36.69804688 -4.03609375 35.39609375 -4.0546875 34.0546875 C-4.05285153 29.36010084 -3.67645884 24.78345613 -3.125 20.125 C-3.03621582 19.34850098 -2.94743164 18.57200195 -2.85595703 17.77197266 C-2.1499095 11.79972879 -1.21963727 5.89058851 0 0 Z " fill="#465690" transform="translate(151,86)"/>
<path d="M0 0 C13.40003208 -0.08632018 26.74243862 0.11668466 40.12841797 0.71850586 C41.9297982 0.79608305 43.73119551 0.87326462 45.53260803 0.9500885 C50.352651 1.15678589 55.17243388 1.36903723 59.9921813 1.58250117 C65.07384645 1.80667426 70.15572628 2.02587871 75.23757935 2.2457428 C83.75878219 2.61511743 92.27982998 2.98790575 100.80078125 3.36303711 C110.61473902 3.7950737 120.42887859 4.2227561 130.24313819 4.64787763 C140.75674244 5.10330265 151.27022864 5.5614051 161.7836709 6.02055287 C164.78732487 6.15158631 167.79099755 6.28218372 170.79467392 6.41270256 C175.5309505 6.6186768 180.26714283 6.82649754 185.00327873 7.03568077 C186.7288566 7.111641 188.4544594 7.1870374 190.18008995 7.26179123 C200.46484762 7.70780593 210.73154318 8.2640031 221 9 C221.99 11.97 221.99 11.97 223 15 C206.45036559 15.085653 189.93251188 14.87217868 173.390625 14.37890625 C171.11929127 14.31375352 168.84794908 14.24889547 166.57659912 14.18431091 C161.85731611 14.04941991 157.13810659 13.91227704 152.41894531 13.77319336 C146.46115515 13.59760602 140.5032639 13.42581312 134.54532146 13.25547886 C94.59686467 12.11284879 94.59686467 12.11284879 76.25390625 11.4375 C61.4410692 10.89808264 46.62468028 10.67710787 31.80432129 10.46777344 C28.19568788 10.41616505 24.58710493 10.36123118 20.97851562 10.30664062 C13.98572123 10.20131243 6.99288088 10.09943682 0 10 C0 6.7 0 3.4 0 0 Z " fill="#D9D9D9" transform="translate(3,20)"/>
<path d="M0 0 C47.91094825 -0.56635261 95.70953815 0.86367213 143.58780289 2.50920868 C155.18554606 2.90767185 166.78378245 3.28552366 178.3828125 3.64453125 C179.15621853 3.66847458 179.92962456 3.69241791 180.72646713 3.71708679 C184.42247011 3.83135781 188.11848734 3.94515786 191.81451416 4.05865479 C198.33476077 4.25904453 204.85487328 4.46372047 211.375 4.66796875 C213.46614525 4.73333567 215.55729101 4.79868626 217.6484375 4.86401367 C219.09895833 4.90934245 220.54947917 4.95467122 222 5 C221.67 5.66 221.34 6.32 221 7 C173.71554665 7.35948151 126.48091699 6.49961496 79.20983315 5.43063164 C66.9735875 5.1547322 54.73841693 4.91694252 42.49985123 4.77482796 C40.42614039 4.75055293 38.35245955 4.72451655 36.27877808 4.69786072 C30.24961751 4.62130555 24.22092567 4.55687044 18.19140625 4.51782227 C16.16014758 4.49305094 14.12889669 4.46762954 12.09765625 4.44140625 C11.19962784 4.44136597 10.30159943 4.44132568 9.37635803 4.44128418 C3.40847374 4.34228089 3.40847374 4.34228089 1.25462341 2.53746033 C0 1 0 1 0 0 Z " fill="#2F2F2F" transform="translate(4,30)"/>
<path d="M0 0 C0.38063221 2.3260857 0.71269945 4.66055264 1 7 C-0.81298005 8.81298005 -3.61181698 8.67555005 -6.0625 9.0625 C-7.16722656 9.23910156 -8.27195312 9.41570312 -9.41015625 9.59765625 C-10.26480469 9.73042969 -11.11945313 9.86320312 -12 10 C-11.3583007 14.10482421 -10.71093527 18.20873492 -10.0625 22.3125 C-9.88009766 23.47974609 -9.69769531 24.64699219 -9.50976562 25.84960938 C-9.33251953 26.96787109 -9.15527344 28.08613281 -8.97265625 29.23828125 C-8.72914429 30.7857605 -8.72914429 30.7857605 -8.48071289 32.36450195 C-8.04662212 35.09490791 -8.04662212 35.09490791 -7 38 C-6.87218214 40.67394964 -6.95608129 43.32095857 -7 46 C-10.3 46.66 -13.6 47.32 -17 48 C-18.98 35.46 -20.96 22.92 -23 10 C-25.64 10.66 -28.28 11.32 -31 12 C-33.72061968 12.20992436 -36.263957 12.09771582 -39 12 C-39 9.69 -39 7.38 -39 5 C-31.41755771 3.33753939 -23.8326536 2.26784876 -16.125 1.375 C-15.01125 1.2409375 -13.8975 1.106875 -12.75 0.96875 C-8.4580459 0.46198915 -4.32705388 0 0 0 Z " fill="#6673A3" transform="translate(100,92)"/>
<path d="M0 0 C3.20409273 -0.55570434 4.93373137 -0.84452029 8 0 C10.97348885 2.8899595 12.95146453 6.32712159 15.0625 9.875 C16.21888248 11.72729319 17.37643266 13.57885791 18.53515625 15.4296875 C19.09734863 16.34975586 19.65954102 17.26982422 20.23876953 18.21777344 C22.57044974 21.90114295 25.11931229 25.40802409 27.71264648 28.91064453 C29 31 29 31 29 34 C26.03 34.495 26.03 34.495 23 35 C21.35 32.69 19.7 30.38 18 28 C13.38 28.99 8.76 29.98 4 31 C3.67 33.97 3.34 36.94 3 40 C0.36 40 -2.28 40 -5 40 C-4.61513791 36.0707817 -4.22422014 32.14221352 -3.828125 28.21411133 C-3.62974512 26.2348428 -3.43591043 24.25512038 -3.2421875 22.27539062 C-2.48230381 14.77153916 -1.50188442 7.39278025 0 0 Z " fill="#295090" transform="translate(151,86)"/>
<path d="M0 0 C3.4375 1.6875 3.4375 1.6875 6 4 C6.875 6.75 6.875 6.75 7 9 C4.625 9.125 4.625 9.125 2 9 C1.34 8.34 0.68 7.68 0 7 C-3.58343976 6.83322718 -3.58343976 6.83322718 -7 7 C-7 8.32 -7 9.64 -7 11 C-6.030625 11.268125 -5.06125 11.53625 -4.0625 11.8125 C-3.42828125 11.99941406 -2.7940625 12.18632813 -2.140625 12.37890625 C-0.65844838 12.80895385 0.8320885 13.21081437 2.328125 13.58984375 C6.43854522 14.73994477 8.5915672 15.56168187 11.5625 18.75 C13.51939929 23.17429404 13.60478996 26.58084018 12.4375 31.25 C9.36965009 34.98477381 5.0531403 35.83074531 0.5 36.5625 C-4.17701769 35.81083644 -7.02695349 33.6617183 -10 30 C-10.7578125 27.859375 -10.7578125 27.859375 -11 26 C-10 25 -10 25 -7.6875 24.6875 C-5 25 -5 25 -3.125 27.0625 C-2.42375 27.701875 -1.7225 28.34125 -1 29 C2.69432511 28.85387105 2.69432511 28.85387105 6 28 C6 26.02 6 24.04 6 22 C4.97519531 21.76925781 3.95039063 21.53851563 2.89453125 21.30078125 C1.53362854 20.97228749 0.17296353 20.64280789 -1.1875 20.3125 C-1.86103516 20.16361328 -2.53457031 20.01472656 -3.22851562 19.86132812 C-8.05290231 18.66111485 -10.83606157 17.03341769 -14 13 C-14.90738141 9.97351665 -14.46433133 8.2503193 -14 5 C-10.16811012 0.01854316 -6.10666696 -0.81573288 0 0 Z " fill="#136DB0" transform="translate(189,82)"/>
<path d="M0 0 C2.475 0.495 2.475 0.495 5 1 C6.37352546 5.05621332 7.72037662 9.12079895 9.0625 13.1875 C9.64741211 14.91323242 9.64741211 14.91323242 10.24414062 16.67382812 C10.60830078 17.78564453 10.97246094 18.89746094 11.34765625 20.04296875 C11.68804932 21.06414795 12.02844238 22.08532715 12.37915039 23.13745117 C13.03617455 26.16678985 12.8379779 28.04452553 12 31 C11.01 31 10.02 31 9 31 C7.68 27.04 6.36 23.08 5 19 C1.7 19 -1.6 19 -5 19 C-4.505 20.546875 -4.01 22.09375 -3.5 23.6875 C-2.35431484 27.26776614 -1.83728932 30.23731556 -2 34 C-3.65 34 -5.3 34 -7 34 C-8.14614168 30.08757221 -9.28525536 26.17317321 -10.41796875 22.25683594 C-10.80407414 20.92554975 -11.19207669 19.59481223 -11.58203125 18.26464844 C-12.14304164 16.34977112 -12.69661203 14.43271904 -13.25 12.515625 C-13.58515625 11.36352539 -13.9203125 10.21142578 -14.265625 9.02441406 C-15 6 -15 6 -15 2 C-13.35 2 -11.7 2 -10 2 C-9.01 5.96 -8.02 9.92 -7 14 C-3.7 13.67 -0.4 13.34 3 13 C2.01 8.71 1.02 4.42 0 0 Z " fill="#0A77BA" transform="translate(214,79)"/>
<path d="M0 0 C1.50832602 2.43008081 1.48523622 4.00265752 1.125 6.8125 C-1.22807813 9.16557813 -2.47180647 9.35878975 -5.6875 10 C-6.96560547 10.26876953 -6.96560547 10.26876953 -8.26953125 10.54296875 C-11.04658136 10.8302498 -13.18162196 10.49430665 -15.875 9.8125 C-16.205 6.5125 -16.535 3.2125 -16.875 -0.1875 C-2.95933735 -1.87424699 -2.95933735 -1.87424699 0 0 Z " fill="#C2C3C5" transform="translate(129.875,97.1875)"/>
<path d="M0 0 C0.99 3.96 1.98 7.92 3 12 C-0.64749474 11.5526376 -4.29260766 11.09269748 -7.9375 10.625 C-9.49887695 10.43550781 -9.49887695 10.43550781 -11.09179688 10.2421875 C-12.08115234 10.11328125 -13.07050781 9.984375 -14.08984375 9.8515625 C-15.46450806 9.67874756 -15.46450806 9.67874756 -16.86694336 9.50244141 C-17.57085205 9.33663574 -18.27476074 9.17083008 -19 9 C-19.33 8.34 -19.66 7.68 -20 7 C-17.04380781 5.8278551 -14.08471211 4.66322524 -11.125 3.5 C-10.28324219 3.16613281 -9.44148437 2.83226562 -8.57421875 2.48828125 C-7.76855469 2.17246094 -6.96289062 1.85664063 -6.1328125 1.53125 C-5.38918457 1.23798828 -4.64555664 0.94472656 -3.87939453 0.64257812 C-2 0 -2 0 0 0 Z " fill="#0B0B0B" transform="translate(235,160)"/>
<path d="M0 0 C3.96873434 1.32291145 4.29905037 2.91149738 6.1875 6.5625 C6.71730469 7.57441406 7.24710938 8.58632812 7.79296875 9.62890625 C8.19128906 10.41136719 8.58960938 11.19382812 9 12 C6.95301586 14.04698414 2.69588759 13.70045693 0 14 C0 9.38 0 4.76 0 0 Z " fill="#C0C3C8" transform="translate(156,95)"/>
</svg>
