<?xml version="1.0" encoding="UTF-8"?>
<svg version="1.1" xmlns="http://www.w3.org/2000/svg" width="512" height="512">
<path d="M0 0 C0.76013397 -0.0065712 1.52026794 -0.0131424 2.30343628 -0.01991272 C4.81101601 -0.03956712 7.31853589 -0.05129431 9.82617188 -0.0612793 C10.68796555 -0.06535482 11.54975922 -0.06943035 12.43766785 -0.07362938 C17.00434119 -0.09446246 21.57098479 -0.10877286 26.13769531 -0.11816406 C30.82340002 -0.12918806 35.50862457 -0.16354921 40.19416046 -0.20333576 C43.82333169 -0.22965767 47.45239152 -0.23786988 51.08164978 -0.24144554 C52.80699383 -0.24627591 54.53233412 -0.25778673 56.25758362 -0.27648354 C74.79611322 -0.46480985 89.16715138 3.7597665 102.97070312 16.6965332 C111.7386153 26.05388485 117.38633613 38.46593788 117.31982422 51.35229492 C117.31622894 52.255112 117.31263367 53.15792908 117.30892944 54.08810425 C117.30430695 54.77744049 117.29968445 55.46677673 117.29492188 56.17700195 C118.9871563 56.1670092 118.9871563 56.1670092 120.71357727 56.15681458 C131.37932479 56.09582697 142.04503663 56.05094483 152.71091938 56.02156544 C158.19350299 56.00595312 163.67594508 55.98479621 169.15844727 55.95068359 C174.45582139 55.91793158 179.75305995 55.90011564 185.05052757 55.89237022 C187.06499552 55.88685505 189.07945659 55.8760857 191.09386635 55.85981178 C211.34700203 55.7027958 211.34700203 55.7027958 220.29492188 59.17700195 C221.95201172 59.81508789 221.95201172 59.81508789 223.64257812 60.46606445 C237.98570949 67.52412334 248.9608508 78.9938783 254.29492188 94.17700195 C256.34381949 101.74238441 256.64680756 108.899262 256.70117188 116.71606445 C256.71257202 117.99629486 256.72397217 119.27652527 256.73571777 120.59555054 C256.7565838 123.29003459 256.76837243 125.98440189 256.77539062 128.67895508 C256.78640122 132.11680964 256.83460024 135.55309637 256.89133453 138.99045753 C256.93768255 142.2947946 256.94148702 145.59891948 256.95117188 148.90356445 C256.97586548 150.12975494 257.00055908 151.35594543 257.02600098 152.61929321 C256.99214005 159.11621688 256.60728803 163.25603291 251.97497559 168.01473999 C248.07528649 170.71254677 243.71757198 170.29348822 239.12304688 170.2746582 C238.09942047 170.27253578 238.09942047 170.27253578 237.05511475 170.27037048 C234.88500504 170.26479279 232.71500017 170.25224449 230.54492188 170.23950195 C229.06966295 170.23448407 227.59440241 170.22992166 226.11914062 170.22583008 C222.51103389 170.2148307 218.90298812 170.19758148 215.29492188 170.17700195 C215.29644076 170.78992873 215.29795964 171.4028555 215.29952455 172.03435582 C215.38911311 208.39300525 215.4577066 244.75163831 215.49918319 281.11037559 C215.50418578 285.47983392 215.5093631 289.84929201 215.51464844 294.21875 C215.51569768 295.08859948 215.51674692 295.95844896 215.51782796 296.85465751 C215.5352146 310.9235381 215.56674266 324.99235304 215.60353306 339.06119474 C215.640991 353.50620194 215.66316797 367.95117484 215.67127585 382.39622861 C215.67675358 391.30355218 215.69402987 400.21069019 215.72658774 409.11795662 C215.74779561 415.23301254 215.75410779 421.34797308 215.74892738 427.46306308 C215.74637531 430.98673937 215.75017842 434.51009228 215.77174377 438.03371048 C215.79174961 441.86547628 215.7868214 445.69645874 215.77593994 449.52824402 C215.78759131 450.62653398 215.79924267 451.72482395 215.81124711 452.85639542 C215.71827067 465.03310778 212.62002582 475.19962182 204.29492188 484.17700195 C203.72128906 484.84086914 203.14765625 485.50473633 202.55664062 486.1887207 C189.70774398 500.19319263 166.96260595 511.22500869 148.03984588 512.30580312 C147.26754436 512.30759169 146.49524283 512.30938026 145.69953823 512.31122303 C144.80175071 512.31568087 143.90396319 512.32013872 142.97896999 512.32473165 C142.00174592 512.32454729 141.02452186 512.32436292 140.01768494 512.32417297 C138.97240665 512.32784966 137.92712835 512.33152635 136.85017496 512.33531445 C133.34208759 512.34634128 129.83402984 512.35019346 126.32592773 512.35400391 C123.81267198 512.36026933 121.29941715 512.3669162 118.78616333 512.37391663 C111.2404805 512.39313451 103.69480288 512.40374359 96.14910182 512.41264442 C92.59174106 512.41703228 89.03438177 512.42239781 85.47702217 512.42763329 C73.64471591 512.44464279 61.81241056 512.45913559 49.98009396 512.46638203 C46.91161536 512.46829178 43.84313677 512.47021213 40.7746582 512.47216797 C39.63073906 512.47289358 39.63073906 512.47289358 38.46371043 512.47363385 C26.11778983 512.4819291 13.77196628 512.5072587 1.42608803 512.53974865 C-11.26190938 512.57286549 -23.94985755 512.59083497 -36.63789839 512.59402627 C-43.7565907 512.59618712 -50.87514151 512.60487319 -57.99379158 512.63048744 C-64.69397115 512.65454093 -71.3938527 512.65799121 -78.09408188 512.64772606 C-80.54820413 512.64723119 -83.002339 512.65353701 -85.45642281 512.6672821 C-109.22372986 512.79291237 -109.22372986 512.79291237 -118.70507812 508.17700195 C-119.52145783 507.79894567 -120.33783754 507.42088938 -121.17895603 507.03137684 C-134.0627665 500.79122962 -141.66021529 489.8712139 -147.62695312 477.34106445 C-150.59422778 468.63275841 -150.99356616 459.85607993 -150.94558716 450.73078918 C-150.94729601 449.52490967 -150.94900486 448.31903015 -150.95076549 447.07660884 C-150.95347234 443.76071065 -150.94729025 440.44505302 -150.93720937 437.12918413 C-150.92851984 433.54175053 -150.9314989 429.9543235 -150.93301392 426.36688232 C-150.93405931 420.16175923 -150.927819 413.9566784 -150.91653824 407.75156593 C-150.90023911 398.78017621 -150.89507073 389.80880678 -150.89256226 380.83740386 C-150.88819206 366.27961184 -150.87490133 351.72184231 -150.85595703 337.1640625 C-150.83758072 323.02799593 -150.8234328 308.89193549 -150.81494141 294.75585938 C-150.81415324 293.44740976 -150.81415324 293.44740976 -150.81334914 292.11252681 C-150.81073894 287.73617095 -150.80821156 283.35981505 -150.80572534 278.98345912 C-150.78501388 242.71462418 -150.74980679 206.44581482 -150.70507812 170.17700195 C-151.61273926 170.1927124 -152.52040039 170.20842285 -153.45556641 170.22460938 C-156.84380884 170.27593326 -160.23163431 170.31344611 -163.62011719 170.34179688 C-165.08274887 170.35682391 -166.54533595 170.3772515 -168.0078125 170.40332031 C-170.11795093 170.43997462 -172.22749039 170.45678872 -174.33789062 170.4699707 C-176.23885498 170.49353638 -176.23885498 170.49353638 -178.17822266 170.51757812 C-182.73642525 170.07740835 -185.99992258 168.58816517 -189.51757812 165.67700195 C-191.94500248 162.61078171 -191.83987156 159.53526688 -191.86621094 155.79443359 C-191.87581848 154.69220963 -191.88542603 153.58998566 -191.89532471 152.45436096 C-191.89957458 151.26068405 -191.90382446 150.06700714 -191.90820312 148.8371582 C-191.91675323 146.98845375 -191.91675323 146.98845375 -191.92547607 145.10240173 C-191.93493374 142.48722188 -191.94146309 139.87203006 -191.9453125 137.25683594 C-191.95182448 133.28669992 -191.98595832 129.31693834 -192.01757812 125.34692383 C-192.02411381 122.80200502 -192.02936206 120.25708251 -192.03320312 117.7121582 C-192.04554993 116.53669937 -192.05789673 115.36124054 -192.07061768 114.15016174 C-192.02798024 98.08750837 -187.27840444 84.12118913 -176.05273438 72.42700195 C-164.31830476 61.18069337 -151.45464478 55.80910701 -135.23803711 55.94995117 C-134.33939438 55.94965912 -133.44075165 55.94936707 -132.51487732 55.94906616 C-129.57687349 55.95044733 -126.6391308 55.96595086 -123.70117188 55.98168945 C-121.65137368 55.9854239 -119.60157369 55.98826883 -117.55177307 55.99026489 C-112.18092846 55.99786734 -106.81019361 56.01748648 -101.43939209 56.03967285 C-95.94919316 56.06020456 -90.45897633 56.06928222 -84.96875 56.0793457 C-74.21414473 56.10073577 -63.45962059 56.13483046 -52.70507812 56.17700195 C-52.71024445 55.48947845 -52.71541077 54.80195496 -52.72073364 54.09359741 C-52.72676102 52.74148666 -52.72676102 52.74148666 -52.73291016 51.36206055 C-52.73807648 50.46828705 -52.7432428 49.57451355 -52.74856567 48.65365601 C-52.52303336 35.80939265 -45.03591906 23.62646388 -36.41210938 14.65356445 C-26.08350861 5.20431065 -13.93846215 0.05281294 0 0 Z M-23.51757812 35.05200195 C-29.23024577 41.92546279 -29.70507812 46.94583043 -29.70507812 56.17700195 C11.21492188 56.17700195 52.13492188 56.17700195 94.29492188 56.17700195 C94.29492188 45.87329336 92.05169738 38.87871801 85.04492188 31.23950195 C77.68952862 24.55426675 69.3910004 22.0729114 59.64379883 22.01586914 C58.99588882 22.01090424 58.34797882 22.00593933 57.68043518 22.00082397 C55.54801345 21.98628316 53.41566619 21.97941273 51.28320312 21.97387695 C50.55005575 21.97104958 49.81690838 21.9682222 49.06154442 21.96530914 C45.1791282 21.95034655 41.29674883 21.94109953 37.41430664 21.93676758 C33.42787789 21.9312977 29.44179324 21.90729294 25.45547199 21.87879562 C22.36943111 21.86005622 19.2834711 21.8549576 16.19737816 21.8534317 C14.72913934 21.85042836 13.26090114 21.84247942 11.79271889 21.82924652 C-3.12154876 21.70445292 -13.13364563 23.9946345 -23.51757812 35.05200195 Z M-152.70507812 83.17700195 C-153.50300781 83.63461914 -154.3009375 84.09223633 -155.12304688 84.5637207 C-162.26345299 89.81262851 -165.91696004 95.81264768 -168.70507812 104.17700195 C-168.70507812 118.36700195 -168.70507812 132.55700195 -168.70507812 147.17700195 C-36.04507813 147.17700195 96.61492187 147.17700195 233.29492188 147.17700195 C236.24739675 113.89978264 236.24739675 113.89978264 223.29492188 87.17700195 C216.78789132 81.90829319 210.57274069 78.93099217 202.08446026 78.91973305 C200.23563339 78.91005971 200.23563339 78.91005971 198.34945649 78.90019095 C196.98986246 78.90313293 195.63026884 78.90626834 194.27067566 78.90957642 C192.81997943 78.90583862 191.36928521 78.90123658 189.91859418 78.89584577 C185.93614868 78.88361641 181.95378718 78.88387616 177.97132719 78.88623452 C173.67468368 78.8866427 169.37806711 78.87560343 165.08143616 78.86611938 C156.66504147 78.84950888 148.2486748 78.84400982 139.8322651 78.84289463 C132.99085225 78.8419442 126.14944864 78.83783416 119.30803871 78.83149338 C99.91026388 78.813881 80.51251118 78.80465453 61.11472829 78.80615433 C60.06906278 78.80623424 59.02339727 78.80631415 57.94604492 78.80639648 C56.89910233 78.80647825 55.85215973 78.80656001 54.7734916 78.80664425 C37.80528305 78.80745719 20.83716325 78.78831728 3.86898037 78.76011975 C-13.55492058 78.73139344 -30.97877823 78.71757931 -48.40270346 78.7193073 C-58.18448522 78.71997128 -67.96617392 78.71447553 -77.74793434 78.6929512 C-86.07613469 78.67474277 -94.40419979 78.67038931 -102.73241142 78.68397005 C-106.98064678 78.69050134 -111.22862265 78.69061115 -115.47683334 78.67326355 C-119.36866315 78.65753483 -123.26002769 78.66039412 -127.15184613 78.67783181 C-128.5569341 78.68090217 -129.96205677 78.67726789 -131.36710379 78.66611166 C-139.38797551 78.60666185 -145.70118716 79.08200905 -152.70507812 83.17700195 Z M-127.70507812 170.17700195 C-127.78757813 218.29512695 -127.87007812 266.41325195 -127.95507812 315.98950195 C-127.99149414 331.18601807 -128.02791016 346.38253418 -128.06542969 362.03955078 C-128.07880697 375.65505037 -128.07880697 375.65505037 -128.08685303 389.27055359 C-128.0905814 395.33763331 -128.10524649 401.4045655 -128.12738037 407.47160339 C-128.15288306 414.47242836 -128.16441228 421.47311195 -128.15885793 428.47398369 C-128.15645329 432.05352836 -128.16020491 435.63275725 -128.18193865 439.21224368 C-128.20510948 443.05187694 -128.1970251 446.89109379 -128.18609619 450.73078918 C-128.19774685 451.83847499 -128.20939751 452.94616079 -128.22140121 454.08741283 C-128.1423481 464.43980258 -125.69791977 472.96510194 -118.42773438 480.52856445 C-109.83924395 488.74702922 -101.41262728 490.3264627 -89.98625183 490.32417297 C-89.00096554 490.32784966 -88.01567924 490.33152635 -87.00053579 490.33531445 C-83.69525751 490.34633713 -80.39001069 490.35019281 -77.0847168 490.35400391 C-74.71588034 490.36026982 -72.34704486 490.36691673 -69.97821045 490.37391663 C-62.86558594 490.39313422 -55.75296087 490.40374531 -48.64031765 490.41264442 C-45.28470437 490.41703389 -41.92909265 490.42239913 -38.57348061 490.42763329 C-27.40686337 490.44464569 -16.24024709 490.45913618 -5.07361889 490.46638203 C-2.17774136 490.46829171 0.71813617 490.47021207 3.61401367 490.47216797 C4.33370859 490.47265171 5.0534035 490.47313545 5.79490735 490.47363385 C17.43327726 490.48192036 29.07154392 490.50723379 40.70986883 490.53974865 C52.67919777 490.57291335 64.64847443 490.59083942 76.61784953 490.59402627 C83.32979082 490.59618313 90.04155881 490.60525953 96.75345802 490.63048744 C103.07608945 490.65386748 109.39845156 490.65796143 115.72111511 490.64772606 C118.03165269 490.64723294 120.34220398 490.65348666 122.65270042 490.6672821 C146.14471747 490.79960684 168.58452323 486.97366259 186.37695312 470.21606445 C190.59012764 465.52109139 192.54643845 461.30743749 192.54101753 455.03272533 C192.54499928 454.01226683 192.54898102 452.99180832 192.55308342 451.94042683 C192.54725809 450.82693458 192.54143276 449.71344233 192.53543091 448.56620789 C192.53714294 447.38057251 192.53885498 446.19493713 192.5406189 444.97337341 C192.54335353 441.67949262 192.53708009 438.38584921 192.52706733 435.09199701 C192.51833591 431.48658067 192.52125643 427.88117036 192.52270317 424.27574635 C192.52376667 417.27652567 192.51453031 410.27735629 192.50170051 403.27814879 C192.48730484 395.18245707 192.48571125 387.08679621 192.48413086 378.99108887 C192.47362865 357.61555176 192.44570645 336.24002609 192.41992188 314.86450195 C192.37867188 267.11762695 192.33742188 219.37075195 192.29492188 170.17700195 C86.69492187 170.17700195 -18.90507813 170.17700195 -127.70507812 170.17700195 Z " fill="#C58BE5" transform="translate(223.705078125,-0.177001953125)"/>
<path d="M0 0 C2.82424288 2.19022918 4.41508603 3.83017207 6 7 C8.32837465 36.6867768 -3.42907519 68.14611282 -22 91 C-22.40831055 91.51224121 -22.81662109 92.02448242 -23.23730469 92.55224609 C-44.64506059 119.31590832 -73.31599419 135.5487237 -107 141 C-107.75796875 141.13148438 -108.5159375 141.26296875 -109.296875 141.3984375 C-141.43398169 146.00724737 -176.17472928 136.32168864 -202 117 C-205.38135633 114.3889659 -208.71571651 111.73205883 -212 109 C-212.02578125 109.86882812 -212.0515625 110.73765625 -212.078125 111.6328125 C-212.65774391 123.409615 -212.65774391 123.409615 -217 128 C-220.41457004 130.59036348 -223.83282171 130.43108741 -228 130 C-231.19572914 128.37198704 -233.34616264 127.16239331 -235.12402344 124.00170898 C-236.41209715 119.58786664 -236.51411994 115.23811092 -236.703125 110.66015625 C-236.74943054 109.66044296 -236.79573608 108.66072968 -236.84344482 107.63072205 C-236.93850219 105.52036833 -237.02899666 103.40980479 -237.11523438 101.29907227 C-237.2494056 98.07677522 -237.40504264 94.85599879 -237.5625 91.63476562 C-237.65234466 89.58078575 -237.74092831 87.52675024 -237.828125 85.47265625 C-237.87592102 84.51311539 -237.92371704 83.55357452 -237.97296143 82.56495667 C-238.19967593 76.48762055 -238.16694029 71.50552471 -234 66.6875 C-230.0834705 63.38292824 -226.58860017 63.9406905 -221.6953125 64.0859375 C-220.86095673 64.10717682 -220.02660095 64.12841614 -219.16696167 64.15029907 C-217.39314128 64.19664092 -215.61938706 64.24557539 -213.84570312 64.296875 C-211.17070152 64.37368768 -208.4955914 64.44145053 -205.8203125 64.5078125 C-198.56303357 64.69667246 -191.30138998 64.90960915 -184.0546875 65.3515625 C-182.74346924 65.43011475 -182.74346924 65.43011475 -181.40576172 65.51025391 C-176.94358559 66.41862871 -174.5018104 68.2472844 -172 72 C-171.28792562 76.88516144 -171.27147357 80.8100735 -173.875 85.0625 C-176.94909072 87.86534742 -178.72407301 88.14499103 -182.7890625 88.31640625 C-183.73007813 88.35830078 -184.67109375 88.40019531 -185.640625 88.44335938 C-186.62546875 88.48267578 -187.6103125 88.52199219 -188.625 88.5625 C-189.61757812 88.60568359 -190.61015625 88.64886719 -191.6328125 88.69335938 C-194.08839838 88.79961069 -196.54408703 88.90164964 -199 89 C-174.03780868 109.23513184 -146.49875646 120.22937791 -114 118 C-91.42405053 115.46218835 -70.87345669 106.19659143 -54 91 C-53.23171875 90.31421875 -52.4634375 89.6284375 -51.671875 88.921875 C-31.67967589 70.04812059 -18.96418899 42.01265402 -17.625 14.6875 C-17.28612331 9.16259965 -16.81434419 6.03871738 -13 2 C-8.7741215 -0.81725233 -4.96375312 -0.79958384 0 0 Z " fill="#A162F5" transform="translate(382,321)"/>
<path d="M0 0 C0.65742188 0.52980469 1.31484375 1.05960938 1.9921875 1.60546875 C3.34425584 2.717654 4.67581462 3.85475859 6 5 C6.03738281 4.11957031 6.07476562 3.23914063 6.11328125 2.33203125 C6.21189453 0.58986328 6.21189453 0.58986328 6.3125 -1.1875 C6.39951172 -2.91033203 6.39951172 -2.91033203 6.48828125 -4.66796875 C7.18756127 -9.22129593 8.6712728 -11.92963643 12.25 -14.8125 C15.8111205 -16.35025658 18.14918846 -16.47290668 22 -16 C25.19572914 -14.37198704 27.34616264 -13.16239331 29.12402344 -10.00170898 C30.41209715 -5.58786664 30.51411994 -1.23811092 30.703125 3.33984375 C30.77258331 4.83941368 30.77258331 4.83941368 30.84344482 6.36927795 C30.93850219 8.47963167 31.02899666 10.59019521 31.11523438 12.70092773 C31.2494056 15.92322478 31.40504264 19.14400121 31.5625 22.36523438 C31.65234466 24.41921425 31.74092831 26.47324976 31.828125 28.52734375 C31.87592102 29.48688461 31.92371704 30.44642548 31.97296143 31.43504333 C32.19742697 37.45209342 31.91264449 42.16928616 28.4375 47.3125 C22.53972241 51.3955768 13.59392396 50.07989342 6.70703125 49.80078125 C5.28253914 49.74630074 5.28253914 49.74630074 3.82926941 49.6907196 C1.8366257 49.61119088 -0.15586688 49.52778861 -2.14819336 49.44067383 C-5.188888 49.31244146 -8.22975622 49.21161566 -11.27148438 49.11132812 C-13.2162167 49.03032972 -15.16088205 48.94770349 -17.10546875 48.86328125 C-18.00871384 48.83704178 -18.91195892 48.81080231 -19.84257507 48.7837677 C-25.44352576 48.50111157 -28.6873128 47.6587423 -33 44 C-34.52620515 41.09545733 -34.92620389 38.26973532 -35 35 C-33.60388952 30.81166856 -31.93749864 28.07812428 -28 26 C-21.15924019 24.36416613 -13.98961327 24.91275101 -7 25 C-32.92220138 3.33065979 -61.33946189 -6.80216195 -95.38330078 -3.7890625 C-122.5472702 -0.53456378 -147.83594276 15.08402118 -164.6953125 36.31640625 C-179.31113206 55.54673158 -187.85560337 79.02101052 -188.59375 103.1953125 C-189.17484022 107.20707 -190.95361279 109.8328758 -193.625 112.8125 C-197.35421704 114.67710852 -200.91924055 114.66312341 -205 114 C-208.6181493 111.8445068 -210.40202608 109.84074434 -212 106 C-215.90102019 78.84484645 -201.46149764 46.76045695 -186.03515625 25.26171875 C-184.0926519 22.77102298 -182.0791236 20.37776135 -180 18 C-179.16726562 17.03449219 -178.33453125 16.06898438 -177.4765625 15.07421875 C-132.63777506 -35.96411761 -52.78082938 -42.65977429 0 0 Z " fill="#B377EC" transform="translate(336,229)"/>
</svg>
